<mxfile host="app.diagrams.net" modified="2024-06-25T16:39:35.633Z" agent="Mozilla/5.0 (Macintosh; Intel Mac OS X 10_15_7) AppleWebKit/537.36 (KHTML, like Gecko) Chrome/126.0.0.0 Safari/537.36" version="24.6.3" etag="UTos31ZJjgXQDOXbyP9_" type="github">
  <diagram name="Page-1" id="L_IEAW1z41VwK7UyjAiO">
    <mxGraphModel>
      <root>
        <mxCell id="0" />
        <mxCell id="1" parent="0" />
      </root>
    </mxGraphModel>
  </diagram>
</mxfile>
